<svg width="315" height="339" viewBox="0 0 315 339" fill="none" xmlns="http://www.w3.org/2000/svg">
<g clip-path="url(#clip0_1_2)">
<path d="M104.564 44.2906C107.434 33.6972 121.073 30.7733 128.033 39.2597L155.725 73.027C162.134 80.8421 157.998 92.6694 148.116 94.7878L109.006 103.171C99.1233 105.29 90.5031 96.1968 93.1457 86.4415L104.564 44.2906Z" fill="#F5BD89" stroke="black" stroke-width="3"/>
<path d="M110.335 50.6994C112.748 43.4856 122.011 41.4999 127.169 47.0909L163.237 86.1906C168.487 91.8826 165.554 101.126 157.982 102.749L105.042 114.097C97.4702 115.72 91.0063 108.491 93.4625 101.147L110.335 50.6994Z" fill="#EEEEEE"/>
<path d="M248.509 57.7184C257.523 52.5264 268.775 59.0505 268.747 69.4528L268.647 106.796C268.619 117.183 257.362 123.649 248.376 118.438L216.117 99.7343C207.131 94.5241 207.149 81.5418 216.15 76.3573L248.509 57.7184Z" fill="#F5BD89" stroke="black" stroke-width="3"/>
<path d="M245.998 68.8872C253.02 64.9916 261.538 70.5442 260.807 78.5413L255.362 138.162C254.676 145.665 246.254 149.744 239.942 145.629L193.035 115.052C186.723 110.937 187.057 101.585 193.645 97.9299L245.998 68.8872Z" fill="#EEEEEE"/>
<ellipse cx="166.331" cy="169.074" rx="103.929" ry="102.765" transform="rotate(-7.42093 166.331 169.074)" fill="#F5BD89" stroke="black" stroke-width="3"/>
<path d="M163.653 243.334C158.568 253.258 146.997 258.978 131.918 259.86C116.88 260.74 98.6534 256.766 80.8532 247.647C63.0531 238.527 49.18 226.056 41.1093 213.336C33.017 200.583 30.8993 187.85 35.9841 177.925C41.0688 168.001 52.64 162.281 67.7183 161.399C82.7567 160.518 100.983 164.493 118.783 173.612C136.584 182.732 150.457 195.203 158.527 207.923C166.62 220.676 168.737 233.409 163.653 243.334Z" fill="#F5F5F5" stroke="black" stroke-width="3"/>
<path d="M276.247 186.444C280.132 196.312 276.821 208.24 267.719 219.688C258.645 231.101 243.995 241.77 225.892 248.897C207.789 256.024 189.798 258.207 175.379 256.044C160.915 253.874 150.361 247.406 146.476 237.539C142.591 227.671 145.902 215.743 155.004 204.295C164.079 192.882 178.728 182.213 196.831 175.086C214.934 167.959 232.925 165.776 247.344 167.939C261.808 170.108 272.362 176.577 276.247 186.444Z" fill="#F5F5F5" stroke="black" stroke-width="3"/>
<ellipse cx="161" cy="196.594" rx="89" ry="71" fill="#EEEEEE"/>
<ellipse cx="156.966" cy="192.413" rx="63.5" ry="26" transform="rotate(-3.49172 156.966 192.413)" fill="#F0E7E7"/>
<path d="M162.5 201.094C162.5 205.933 158.888 210.425 152.803 213.736C146.736 217.037 138.322 219.094 129 219.094C119.678 219.094 111.264 217.037 105.197 213.736C99.1119 210.425 95.5 205.933 95.5 201.094C95.5 196.254 99.1119 191.763 105.197 188.451C111.264 185.151 119.678 183.094 129 183.094C138.322 183.094 146.736 185.151 152.803 188.451C158.888 191.763 162.5 196.254 162.5 201.094Z" fill="#F5F5F5" stroke="black"/>
<path d="M185.767 232.061C184.044 235.829 179.564 238.035 173.496 238.407C167.452 238.777 159.968 237.311 152.493 233.895C145.018 230.478 139.012 225.779 135.337 220.966C131.647 216.133 130.383 211.303 132.106 207.534C133.828 203.766 138.308 201.561 144.377 201.188C150.421 200.818 157.905 202.284 165.38 205.7C172.855 209.117 178.86 213.817 182.535 218.63C186.225 223.462 187.489 228.292 185.767 232.061Z" fill="#F77474" stroke="black"/>
<rect x="180.837" y="299.429" width="154" height="99" transform="rotate(169.518 180.837 299.429)" fill="#D9D9D9" stroke="black" stroke-width="2"/>
<path d="M154.66 204.366L99.3637 287.628L17.9393 229.661L154.66 204.366Z" fill="#F0E7E7" stroke="black" stroke-width="2"/>
<path d="M94.1784 259.431C113.536 225.41 122.865 247.923 122.865 247.923C125.609 261.562 115.703 286.683 100.134 289.814C84.5643 292.946 67.049 273.101 64.3058 259.462C61.5627 245.823 76.4031 242.772 94.1784 259.431Z" fill="#F77474"/>
<path d="M193.5 204.094C193.5 208.087 190.304 211.832 184.84 214.608C179.405 217.37 171.86 219.094 163.5 219.094C155.14 219.094 147.595 217.37 142.16 214.608C136.696 211.832 133.5 208.087 133.5 204.094C133.5 200.101 136.696 196.356 142.16 193.579C147.595 190.817 155.14 189.094 163.5 189.094C171.86 189.094 179.405 190.817 184.84 193.579C190.304 196.356 193.5 200.101 193.5 204.094Z" fill="#EEEEEE" stroke="black"/>
<ellipse cx="136.5" cy="186.094" rx="26.5" ry="18.5" fill="#0E0E0F"/>
<path d="M156.5 134.094C156.5 150.633 142.204 164.094 124.5 164.094C106.796 164.094 92.5 150.633 92.5 134.094C92.5 117.555 106.796 104.094 124.5 104.094C142.204 104.094 156.5 117.555 156.5 134.094Z" fill="#F5F5F5" stroke="black"/>
<path d="M230.5 135.094C230.5 151.633 216.204 165.094 198.5 165.094C180.796 165.094 166.5 151.633 166.5 135.094C166.5 118.555 180.796 105.094 198.5 105.094C216.204 105.094 230.5 118.555 230.5 135.094Z" fill="#EEEEEE" stroke="black"/>
<ellipse cx="113" cy="122.094" rx="17" ry="17.5" fill="#0E0E0F"/>
<ellipse cx="207" cy="146.094" rx="17" ry="17.5" fill="#0E0E0F"/>
<ellipse cx="183" cy="202.094" rx="1" ry="0.5" fill="#0E0E0F"/>
<ellipse cx="186" cy="204.094" rx="1" ry="0.5" fill="#0E0E0F"/>
<ellipse cx="183" cy="206.094" rx="1" ry="0.5" fill="#0E0E0F"/>
<ellipse cx="185" cy="208.094" rx="1" ry="0.5" fill="#0E0E0F"/>
<ellipse cx="181" cy="210.094" rx="1" ry="0.5" fill="#0E0E0F"/>
<ellipse cx="104" cy="197.094" rx="1" ry="0.5" fill="#0E0E0F"/>
<ellipse cx="101" cy="200.094" rx="1" ry="0.5" fill="#0E0E0F"/>
<ellipse cx="106" cy="201.094" rx="1" ry="0.5" fill="#0E0E0F"/>
<ellipse cx="102" cy="204.094" rx="1" ry="0.5" fill="#0E0E0F"/>
<ellipse cx="103" cy="206.094" rx="1" ry="0.5" fill="#0E0E0F"/>
</g>
<defs>
<clipPath id="clip0_1_2">
<rect width="315" height="339" fill="white"/>
</clipPath>
</defs>
</svg>
